<svg xmlns="http://www.w3.org/2000/svg" viewBox="0 0 200 200" width="200" height="200">
  <defs>
    <linearGradient id="bg" x1="0%" y1="0%" x2="100%" y2="100%">
      <stop offset="0%" style="stop-color:#7c3aed"/>
      <stop offset="100%" style="stop-color:#a78bfa"/>
    </linearGradient>
  </defs>
  <circle cx="100" cy="100" r="96" fill="url(#bg)" stroke="#6d28d9" stroke-width="2"/>
  <!-- Hair -->
  <ellipse cx="100" cy="88" rx="55" ry="52" fill="#3B1F0B"/>
  <path d="M48 95 Q45 60 65 45 Q85 32 100 32 Q115 32 135 45 Q155 60 152 95" fill="#3B1F0B"/>
  <!-- Hair bangs -->
  <path d="M62 78 Q70 60 82 62 Q85 68 78 80Z" fill="#2D1506"/>
  <path d="M82 72 Q90 55 100 58 Q102 65 95 76Z" fill="#2D1506"/>
  <path d="M98 72 Q106 55 116 58 Q118 65 110 76Z" fill="#2D1506"/>
  <path d="M114 78 Q122 60 132 62 Q135 68 128 80Z" fill="#2D1506"/>
  <!-- Face -->
  <ellipse cx="100" cy="108" rx="40" ry="38" fill="#D4956B"/>
  <!-- Eyes -->
  <ellipse cx="85" cy="102" rx="8" ry="9" fill="white"/>
  <ellipse cx="115" cy="102" rx="8" ry="9" fill="white"/>
  <circle cx="87" cy="103" r="4.5" fill="#3B1F0B"/>
  <circle cx="113" cy="103" r="4.5" fill="#3B1F0B"/>
  <circle cx="88" cy="101" r="1.8" fill="white"/>
  <circle cx="114" cy="101" r="1.8" fill="white"/>
  <!-- Eyebrows -->
  <path d="M78 92 Q85 88 92 92" stroke="#3B1F0B" stroke-width="2" fill="none"/>
  <path d="M108 92 Q115 88 122 92" stroke="#3B1F0B" stroke-width="2" fill="none"/>
  <!-- Nose -->
  <ellipse cx="100" cy="112" rx="3" ry="3.5" fill="#C47D55"/>
  <!-- Smile -->
  <path d="M86 122 Q100 136 114 122" stroke="#8B4513" stroke-width="2.5" fill="none" stroke-linecap="round"/>
  <!-- Cheeks -->
  <circle cx="72" cy="118" r="7" fill="#E8A07A" opacity="0.5"/>
  <circle cx="128" cy="118" r="7" fill="#E8A07A" opacity="0.5"/>
  <!-- Backpack strap hint -->
  <path d="M58 148 Q58 155 65 158" stroke="#7c3aed" stroke-width="5" fill="none" stroke-linecap="round"/>
  <path d="M142 148 Q142 155 135 158" stroke="#7c3aed" stroke-width="5" fill="none" stroke-linecap="round"/>
</svg>
