<svg xmlns="http://www.w3.org/2000/svg" viewBox="0 0 200 200" width="200" height="200">
  <defs>
    <linearGradient id="bg" x1="0%" y1="0%" x2="100%" y2="100%">
      <stop offset="0%" style="stop-color:#e85d75"/>
      <stop offset="100%" style="stop-color:#f9a8d4"/>
    </linearGradient>
  </defs>
  <circle cx="100" cy="100" r="96" fill="url(#bg)" stroke="#d44d65" stroke-width="2"/>
  <!-- Head -->
  <ellipse cx="100" cy="105" rx="50" ry="48" fill="#FFB5C5"/>
  <!-- Ears -->
  <ellipse cx="72" cy="58" rx="14" ry="18" fill="#FFB5C5" stroke="#E8899A" stroke-width="1.5" transform="rotate(-15 72 58)"/>
  <ellipse cx="72" cy="58" rx="8" ry="12" fill="#FF8FA5" transform="rotate(-15 72 58)"/>
  <ellipse cx="128" cy="58" rx="14" ry="18" fill="#FFB5C5" stroke="#E8899A" stroke-width="1.5" transform="rotate(15 128 58)"/>
  <ellipse cx="128" cy="58" rx="8" ry="12" fill="#FF8FA5" transform="rotate(15 128 58)"/>
  <!-- Snout -->
  <ellipse cx="115" cy="108" rx="22" ry="16" fill="#FFCCD5"/>
  <circle cx="110" cy="106" r="3.5" fill="#E85D75"/>
  <circle cx="122" cy="106" r="3.5" fill="#E85D75"/>
  <!-- Eyes -->
  <circle cx="85" cy="92" r="7" fill="white" stroke="#333" stroke-width="1"/>
  <circle cx="105" cy="92" r="7" fill="white" stroke="#333" stroke-width="1"/>
  <circle cx="87" cy="92" r="3.5" fill="#111"/>
  <circle cx="107" cy="92" r="3.5" fill="#111"/>
  <circle cx="88" cy="91" r="1.2" fill="white"/>
  <circle cx="108" cy="91" r="1.2" fill="white"/>
  <!-- Cheeks -->
  <circle cx="70" cy="110" r="8" fill="#FF8FA5" opacity="0.4"/>
  <circle cx="140" cy="108" r="8" fill="#FF8FA5" opacity="0.4"/>
  <!-- Mouth -->
  <path d="M88 120 Q100 130 112 120" stroke="#D44D65" stroke-width="2" fill="none" stroke-linecap="round"/>
  <!-- Dress collar -->
  <path d="M65 150 Q100 162 135 150" stroke="#E53E3E" stroke-width="6" fill="none" stroke-linecap="round"/>
</svg>
